<?xml version="1.0" encoding="iso-8859-1"?>
<!-- Generator: Adobe Illustrator 19.0.0, SVG Export Plug-In . SVG Version: 6.00 Build 0)  -->
<svg version="1.1" id="Capa_1" xmlns="http://www.w3.org/2000/svg" xmlns:xlink="http://www.w3.org/1999/xlink" x="0px" y="0px"
	 viewBox="0 0 512 512" style="enable-background:new 0 0 512 512;" xml:space="preserve">
<path style="fill:#FFDA2D;" d="M256,497c-64.373,0-124.893-25.068-170.413-70.588C40.069,380.894,15,320.373,15,256
	S40.069,131.106,85.587,85.587C131.107,40.069,191.627,15,256,15s124.893,25.068,170.413,70.587
	C471.932,131.106,497,191.626,497,256s-25.068,124.894-70.588,170.413C380.893,471.932,320.373,497,256,497z"/>
<path style="fill:#FDBF00;" d="M426.413,85.587c-45.44-45.44-105.83-70.497-170.079-70.583v481.992
	c64.249-0.087,124.639-25.143,170.079-70.583C471.932,380.894,497,320.373,497,256S471.932,131.106,426.413,85.587z"/>
<path style="fill:#FF9100;" d="M437.02,74.98C388.667,26.629,324.38,0,256,0S123.333,26.629,74.98,74.981
	C26.629,123.333,0,187.621,0,256s26.629,132.667,74.981,181.019S187.62,512,256,512s132.667-26.628,181.02-74.98
	C485.371,388.667,512,324.379,512,256C512,187.62,485.371,123.333,437.02,74.98z M426.058,404.845l-28.313-28.313l-21.213,21.214
	l28.313,28.312c-37.468,32.887-84.097,52.201-133.845,55.44v-40.04h-30v40.04c-49.749-3.239-96.377-22.553-133.845-55.441
	l28.312-28.312l-21.213-21.213l-28.312,28.312C53.055,367.376,33.741,320.748,30.502,271h40.04v-30h-40.04
	c3.239-49.748,22.553-96.377,55.441-133.845l28.312,28.312l21.213-21.213l-28.312-28.312C144.623,53.055,191.251,33.741,241,30.502
	v37.692h30V30.502c49.748,3.239,96.377,22.553,133.845,55.44l-26.653,26.653l21.213,21.213l26.653-26.653
	c32.888,37.468,52.202,84.096,55.44,133.845h-40.039v30h40.039C478.26,320.748,458.946,367.377,426.058,404.845z"/>
<polygon style="fill:#FF641A;" points="271,145.921 241,146.043 241.472,262.317 351.261,370.164 372.284,348.763 271.421,249.683 
	"/>
<path style="fill:#F77E00;" d="M437.02,74.98C388.746,26.708,324.589,0.091,256.333,0.004v68.19H271V30.502
	c49.748,3.239,96.377,22.553,133.845,55.44l-26.653,26.653l21.213,21.213l26.653-26.653c32.888,37.468,52.202,84.096,55.44,133.845
	h-40.039v30h40.039c-3.239,49.748-22.552,96.377-55.44,133.845l-28.313-28.313l-21.213,21.214l28.313,28.312
	c-37.468,32.887-84.097,52.201-133.845,55.44v-40.04h-14.667v70.537c68.255-0.087,132.412-26.703,180.686-74.976
	C485.371,388.667,512,324.379,512,256C512,187.62,485.371,123.333,437.02,74.98z"/>
<polygon style="fill:#F03800;" points="271.421,249.683 271,145.921 256.333,145.981 256.333,276.915 351.261,370.164 
	372.284,348.763 "/>
<g>
</g>
<g>
</g>
<g>
</g>
<g>
</g>
<g>
</g>
<g>
</g>
<g>
</g>
<g>
</g>
<g>
</g>
<g>
</g>
<g>
</g>
<g>
</g>
<g>
</g>
<g>
</g>
<g>
</g>
</svg>
